<svg width="36" height="36" viewBox="0 0 36 36" fill="#fff" xmlns="http://www.w3.org/2000/svg">
<path fill-rule="evenodd" clip-rule="evenodd" d="M9.81501 20.3912V15.3512C9.81501 14.5718 9.33953 14.3562 8.76103 14.8719L0.562213 22.3548C0.284789 22.5757 0.122775 22.9203 0.124774 23.2851C0.12545 23.6498 0.286862 23.9937 0.562213 24.2172L8.76103 31.7199C9.3427 32.2357 9.81501 32.0184 9.81501 31.2406V26.1974H11.2018C16.4712 25.9079 20.9261 22.0152 22.1378 16.6415C22.2203 16.2712 22.2791 15.8956 22.3137 15.5171C22.3549 15.1273 22.1758 15.0428 21.9112 15.3131C21.9112 15.3131 21.8351 15.386 21.7733 15.459C18.9675 18.4387 15.1918 20.2027 11.1986 20.3995H9.81184" fill="#fff"/>
<path fill-rule="evenodd" clip-rule="evenodd" d="M25.4025 11.6088V16.6488C25.4025 17.4282 25.878 17.6438 26.4565 17.1281L34.6553 9.64523C34.9327 9.42426 35.0948 9.07967 35.0928 8.71485C35.0921 8.35022 34.9307 8.0063 34.6553 7.78281L26.4565 0.280077C25.8748 -0.235695 25.4025 -0.0184402 25.4025 0.759363V5.80265H24.0157C18.7464 6.09205 14.2915 9.98477 13.0797 15.3585C12.9972 15.7288 12.9384 16.1044 12.9038 16.4829C12.8626 16.8727 13.0417 16.9572 13.3064 16.6869C13.3064 16.6869 13.3825 16.614 13.4443 16.541C16.25 13.5613 20.0257 11.7973 24.0189 11.6005H25.4057" fill="#fff"/>
</svg>
